# xmcd
#
# Track frame offsets:
#	150
#	31470
#	55833
#	74584
#	100094
#	110718
#	141296
#	165428
#	187316
#
# Disc length: 2643 seconds
#
# Revision: 0
# Processed by: cddbd v1.5.1PL0 Copyright (c) Steve Scherf et al.
# Submitted via: dBpowerAMP V4.0
#
DISCID=850a5109
DTITLE=Filipowicz, Paul - Chinatown
DYEAR=2004
DGENRE=Blues
TTITLE0=Jackson Transfer
TTITLE1=Chinatown
TTITLE2=Who Loves You
TTITLE3=Wichita Falls
TTITLE4=Too Hot to Boogie
TTITLE5=199 Lonely Tear Drops
TTITLE6=My Kind of Baby
TTITLE7=Nightclubbing
TTITLE8=Bootie on Duty
EXTD=
EXTT0=
EXTT1=
EXTT2=
EXTT3=
EXTT4=
EXTT5=
EXTT6=
EXTT7=
EXTT8=
PLAYORDER=
